#!OML:ASF H:\Martial Arts Walks\Project 1\Capture day 1\Session 1\male.ASF
:FULLY-SPECIFIED
:DEGREES
1769
root -1.69183 13.5389 -39.4516 13.7595 -28.1758 -18.0776
lowerback 9.28882 0.313613 8.22504
upperback -1.16316 1.69639 6.31779
thorax -6.43834 0.627802 1.8132
lowerneck -3.12002 7.29564 1.87073
upperneck 5.89229 9.59574 0.773364
head 2.4469 4.83499 0.228803
rclavicle 2.50966e-015 -7.45443e-014
rhumerus -78.7987 21.1099 -94.5425
rradius 112.134
rwrist -51.4813
rhand 5.16133 -12.4147
rfingers 7.12502
rthumb 30.5238 -39.9058
lclavicle 2.50966e-015 -7.45443e-014
lhumerus 2.85844 -6.18397 70.8037
lradius 30.9068
lwrist -36.7388
lhand -24.5465 24.73
lfingers 7.12502
lthumb 1.9496 -305.299
rfemur 14.4972 -6.13748 14.037
rtibia 32.7082
rfoot -22.5657 -31.6591
rtoes -28.246
lfemur -72.8018 36.2062 -4.62926
ltibia 79.1696
lfoot -8.30121 -7.4129
ltoes 0.718412
1770
root -1.69353 13.5347 -39.45 13.7871 -28.1417 -18.0934
lowerback 9.26467 0.301042 8.21274
upperback -1.16985 1.67606 6.32252
thorax -6.43272 0.618456 1.82814
lowerneck -3.1187 7.29022 1.87776
upperneck 5.88137 9.58744 0.785265
head 2.44269 4.83131 0.230713
rclavicle 5.60324e-015 -4.97956e-014
rhumerus -78.7847 21.102 -94.5452
rradius 112.105
rwrist -51.4797
rhand 5.15423 -12.4576
rfingers 7.12502
rthumb 30.5171 -39.95
lclavicle 5.60324e-015 -4.97956e-014
lhumerus 2.84511 -6.15534 70.7929
lradius 30.8967
lwrist -36.755
lhand -24.5833 24.7808
lfingers 7.12502
lthumb 1.91406 -305.248
rfemur 14.4729 -6.16006 14.065
rtibia 32.7531
rfoot -22.5731 -31.693
rtoes -28.2603
lfemur -72.8716 36.201 -4.62821
ltibia 79.219
lfoot -8.32315 -7.42388
ltoes 0.658682
1771
root -1.69541 13.5305 -39.4487 13.8102 -28.1086 -18.1046
lowerback 9.2465 0.28765 8.19065
upperback -1.17649 1.6544 6.32863
thorax -6.43076 0.608759 1.85016
lowerneck -3.1118 7.28505 1.87847
upperneck 5.86818 9.57996 0.797226
head 2.43636 4.82791 0.233366
rclavicle 1.65612e-014 -6.52014e-014
rhumerus -78.7706 21.0978 -94.5489
rradius 112.074
rwrist -51.464
rhand 5.1514 -12.4923
rfingers 7.12502
rthumb 30.5144 -39.9852
lclavicle 1.65612e-014 -6.52014e-014
lhumerus 2.8365 -6.1196 70.7834
lradius 30.8799
lwrist -36.7749
lhand -24.6002 24.8291
lfingers 7.12502
lthumb 1.8977 -305.2
rfemur 14.4463 -6.18066 14.0922
rtibia 32.8053
rfoot -22.5791 -31.7437
rtoes -28.2579
lfemur -72.936 36.1948 -4.62819
ltibia 79.2659
lfoot -8.34485 -7.43444
ltoes 0.602037
1772
root -1.69736 13.5262 -39.4471 13.8298 -28.0849 -18.1143
lowerback 9.23255 0.277636 8.1653
upperback -1.18228 1.63732 6.33399
thorax -6.43019 0.601386 1.87248
lowerneck -3.10154 7.27892 1.87598
upperneck 5.852 9.57149 0.809023
head 2.42826 4.82392 0.236214
rclavicle 7.61966e-014 -8.43841e-014
rhumerus -78.7571 21.0927 -94.553
rradius 112.042
rwrist -51.4356
rhand 5.14328 -12.521
rfingers 7.12502
rthumb 30.5066 -40.0154
lclavicle 7.61966e-014 -8.43841e-014
lhumerus 2.83374 -6.08117 70.7767
lradius 30.8568
lwrist -36.7864
lhand -24.5893 24.8601
lfingers 7.12502
lthumb 1.90823 -305.169
rfemur 14.4197 -6.19157 14.1158
rtibia 32.8618
rfoot -22.5992 -31.7901
rtoes -28.2339
lfemur -72.9905 36.1946 -4.62469
ltibia 79.314
lfoot -8.36794 -7.44379
ltoes 0.547134
1773
root -1.69937 13.522 -39.4452 13.8432 -28.0706 -18.1207
lowerback 9.22472 0.270543 8.13443
upperback -1.18803 1.62433 6.33969
thorax -6.4331 0.596145 1.89762
lowerneck -3.08334 7.27318 1.86755
upperneck 5.833 9.56406 0.82075
head 2.41746 4.82032 0.239592
rclavicle -2.61153e-014 5.04913e-014
rhumerus -78.7489 21.0889 -94.5556
rradius 112.012
rwrist -51.3967
rhand 5.13248 -12.5455
rfingers 7.12502
rthumb 30.4963 -40.0418
lclavicle -2.61153e-014 5.04913e-014
lhumerus 2.83018 -6.03993 70.7758
lradius 30.8307
lwrist -36.7797
lhand -24.553 24.8593
lfingers 7.12502
lthumb 1.94327 -305.17
rfemur 14.3968 -6.19235 14.133
rtibia 32.921
rfoot -22.6435 -31.8256
rtoes -28.1894
lfemur -73.0328 36.1992 -4.61897
ltibia 79.3637
lfoot -8.39369 -7.45011
ltoes 0.503498
1774
root -1.70129 13.5179 -39.4429 13.8516 -28.065 -18.1281
lowerback 9.22444 0.266705 8.10761
upperback -1.19266 1.6169 6.34312
thorax -6.43881 0.593374 1.91727
lowerneck -3.06575 7.2683 1.85976
upperneck 5.81586 9.55774 0.832228
head 2.40746 4.81727 0.242907
rclavicle 5.24916e-014 -3.1408e-014
rhumerus -78.7468 21.081 -94.5576
rradius 111.992
rwrist -51.3527
rhand 5.12003 -12.5681
rfingers 7.12502
rthumb 30.4844 -40.0665
lclavicle 5.24916e-014 -3.1408e-014
lhumerus 2.82663 -6.0041 70.776
lradius 30.8063
lwrist -36.7524
lhand -24.5021 24.834
lfingers 7.12502
lthumb 1.99246 -305.196
rfemur 14.3789 -6.18479 14.1465
rtibia 32.9801
rfoot -22.6991 -31.8606
rtoes -28.1211
lfemur -73.0637 36.2085 -4.60706
ltibia 79.4157
lfoot -8.42199 -7.45264
ltoes 0.465417
1775
root -1.70317 13.5138 -39.4405 13.8563 -28.0625 -18.1301
lowerback 9.22818 0.265401 8.07955
upperback -1.19885 1.61326 6.34378
thorax -6.44833 0.592368 1.93413
lowerneck -3.04656 7.26305 1.85169
upperneck 5.80165 9.55094 0.844058
head 2.39811 4.814 0.246372
rclavicle -5.86042e-014 1.93815e-014
rhumerus -78.7476 21.0658 -94.5577
rradius 111.975
rwrist -51.3081
rhand 5.10812 -12.5904
rfingers 7.12502
rthumb 30.4731 -40.0909
lclavicle -5.86042e-014 1.93815e-014
lhumerus 2.81935 -5.9809 70.7776
lradius 30.788
lwrist -36.7094
lhand -24.4462 24.7803
lfingers 7.12502
lthumb 2.04638 -305.25
rfemur 14.3626 -6.17787 14.1507
rtibia 33.04
rfoot -22.7621 -31.8824
rtoes -28.0611
lfemur -73.091 36.216 -4.59913
ltibia 79.4681
lfoot -8.45139 -7.44971
ltoes 0.41395
1776
root -1.70498 13.51 -39.4376 13.858 -28.0662 -18.1279
lowerback 9.23221 0.266035 8.05374
upperback -1.20373 1.61216 6.34043
thorax -6.45634 0.592514 1.94506
lowerneck -3.03541 7.25933 1.84513
upperneck 5.79707 9.54581 0.856668
head 2.39349 4.81165 0.250517
rclavicle 9.16894e-015 3.19049e-014
rhumerus -78.7502 21.0456 -94.5568
rradius 111.965
rwrist -51.2683
rhand 5.09766 -12.6156
rfingers 7.12502
rthumb 30.4631 -40.118
lclavicle 9.16894e-015 3.19049e-014
lhumerus 2.80704 -5.96732 70.7763
lradius 30.7809
lwrist -36.6689
lhand -24.402 24.7143
lfingers 7.12502
lthumb 2.08914 -305.316
rfemur 14.3471 -6.17097 14.1442
rtibia 33.1001
rfoot -22.8157 -31.8975
rtoes -28.0377
lfemur -73.1136 36.2247 -4.59507
ltibia 79.5213
lfoot -8.48299 -7.44069
ltoes 0.34861
1777
root -1.70671 13.5062 -39.4354 13.8607 -28.0589 -18.118
lowerback 9.24174 0.263413 8.02557
upperback -1.21315 1.60757 6.33507
thorax -6.47244 0.590771 1.95576
lowerneck -3.03046 7.25571 1.84184
upperneck 5.80275 9.54063 0.866186
head 2.39375 4.80928 0.253753
rclavicle -6.00081e-015 -1.98785e-014
rhumerus -78.7547 21.0205 -94.5553
rradius 111.961
rwrist -51.2368
rhand 5.08902 -12.6475
rfingers 7.12502
rthumb 30.4549 -40.1514
lclavicle -6.00081e-015 -1.98785e-014
lhumerus 2.79322 -5.96406 70.7714
lradius 30.7802
lwrist -36.6472
lhand -24.3711 24.646
lfingers 7.12502
lthumb 2.11893 -305.385
rfemur 14.3274 -6.17802 14.1331
rtibia 33.1617
rfoot -22.8802 -31.9079
rtoes -28.0104
lfemur -73.1488 36.2201 -4.60359
ltibia 79.571
lfoot -8.51013 -7.42738
ltoes 0.269501
1778
root -1.70839 13.5026 -39.4329 13.8633 -28.0567 -18.1026
lowerback 9.24712 0.262218 7.99728
upperback -1.22124 1.604 6.32619
thorax -6.48459 0.589602 1.96259
lowerneck -3.03522 7.2531 1.84421
upperneck 5.81824 9.53651 0.870895
head 2.39963 4.80745 0.255342
rclavicle 2.9358e-014 -6.16232e-015
rhumerus -78.7584 20.9916 -94.553
rradius 111.959
rwrist -51.212
rhand 5.0819 -12.6855
rfingers 7.12502
rthumb 30.4481 -40.1907
lclavicle 2.9358e-014 -6.16232e-015
lhumerus 2.78046 -5.96544 70.7628
lradius 30.7853
lwrist -36.6547
lhand -24.3655 24.5799
lfingers 7.12502
lthumb 2.12437 -305.451
rfemur 14.3054 -6.18715 14.1104
rtibia 33.2239
rfoot -22.9723 -31.8886
rtoes -27.9887
lfemur -73.1843 36.217 -4.61992
ltibia 79.6209
lfoot -8.53975 -7.40842
ltoes 0.175137
1779
root -1.71002 13.4989 -39.4305 13.8664 -28.0502 -18.084
lowerback 9.25573 0.259117 7.96722
upperback -1.23012 1.59823 6.31802
thorax -6.49956 0.587357 1.9715
lowerneck -3.04842 7.25353 1.85129
upperneck 5.84113 9.53635 0.869401
head 2.41012 4.80754 0.254978
rclavicle -4.69629e-014 -6.93758e-014
rhumerus -78.7635 20.9636 -94.5486
rradius 111.964
rwrist -51.1965
rhand 5.07446 -12.7298
rfingers 7.12502
rthumb 30.441 -40.2363
lclavicle -4.69629e-014 -6.93758e-014
lhumerus 2.76971 -5.96533 70.7539
lradius 30.7915
lwrist -36.6869
lhand -24.3639 24.5236
lfingers 7.12502
lthumb 2.12588 -305.507
rfemur 14.2824 -6.2053 14.0842
rtibia 33.2854
rfoot -23.057 -31.8702
rtoes -27.9782
lfemur -73.2247 36.2096 -4.64188
ltibia 79.6698
lfoot -8.56888 -7.38778
ltoes 0.0824491
